<svg width="20" height="20" viewBox="0 0 20 20" fill="none" xmlns="http://www.w3.org/2000/svg">
<path d="M13.6992 3.23242C15.8955 3.23242 17.6825 5.02124 17.6826 7.24023C17.6826 9.94068 16.4359 12.1056 14.8652 13.7148C13.2868 15.332 11.4206 16.345 10.3057 16.7256L10.2998 16.7275C10.2493 16.7453 10.1401 16.7656 9.99902 16.7656C9.85835 16.7656 9.74974 16.7453 9.69922 16.7275L9.69238 16.7256L9.47461 16.6465C8.34506 16.2156 6.61249 15.2309 5.13281 13.7148C3.56217 12.1056 2.31641 9.94066 2.31641 7.24023C2.31648 5.02124 4.10353 3.23242 6.2998 3.23242C7.60081 3.23257 8.75266 3.85998 9.47754 4.83594C9.6001 5.00097 9.79347 5.09853 9.99902 5.09863C10.2047 5.09863 10.3989 5.00106 10.5215 4.83594C11.246 3.86052 12.4058 3.23246 13.6992 3.23242Z" stroke="#6C6C6C" stroke-width="1.3" stroke-linecap="round" stroke-linejoin="round"/>
</svg>
