<svg width="19" height="19" viewBox="0 0 19 19" fill="none" xmlns="http://www.w3.org/2000/svg">
<path d="M14.872 17.9184C14.102 18.1459 13.192 18.2509 12.1245 18.2509H6.87445C5.80695 18.2509 4.89695 18.1459 4.12695 17.9184C4.31945 15.6434 6.6557 13.8496 9.49945 13.8496C12.3432 13.8496 14.6795 15.6434 14.872 17.9184Z" stroke="#85858B" stroke-width="1.3" stroke-linecap="round" stroke-linejoin="round"/>
<path d="M12.125 0.75H6.875C2.5 0.75 0.75 2.5 0.75 6.875V12.125C0.75 15.4325 1.7475 17.2437 4.1275 17.9175C4.32 15.6425 6.65625 13.8487 9.5 13.8487C12.3438 13.8487 14.68 15.6425 14.8725 17.9175C17.2525 17.2437 18.25 15.4325 18.25 12.125V6.875C18.25 2.5 16.5 0.75 12.125 0.75ZM9.5 11.3987C7.7675 11.3987 6.3675 9.99001 6.3675 8.25751C6.3675 6.52501 7.7675 5.125 9.5 5.125C11.2325 5.125 12.6325 6.52501 12.6325 8.25751C12.6325 9.99001 11.2325 11.3987 9.5 11.3987Z" stroke="#85858B" stroke-width="1.3" stroke-linecap="round" stroke-linejoin="round"/>
<path d="M12.6322 8.25751C12.6322 9.99001 11.2322 11.3987 9.49969 11.3987C7.76719 11.3987 6.36719 9.99001 6.36719 8.25751C6.36719 6.52501 7.76719 5.125 9.49969 5.125C11.2322 5.125 12.6322 6.52501 12.6322 8.25751Z" stroke="#85858B" stroke-width="1.3" stroke-linecap="round" stroke-linejoin="round"/>
</svg>
