<svg width="19" height="19" viewBox="0 0 19 19" fill="none" xmlns="http://www.w3.org/2000/svg">
<path d="M3.375 7.75H5.125C6.875 7.75 7.75 6.875 7.75 5.125V3.375C7.75 1.625 6.875 0.75 5.125 0.75H3.375C1.625 0.75 0.75 1.625 0.75 3.375V5.125C0.75 6.875 1.625 7.75 3.375 7.75Z" stroke="#85858B" stroke-width="1.3" stroke-miterlimit="10" stroke-linecap="round" stroke-linejoin="round"/>
<path d="M13.875 7.75H15.625C17.375 7.75 18.25 6.875 18.25 5.125V3.375C18.25 1.625 17.375 0.75 15.625 0.75H13.875C12.125 0.75 11.25 1.625 11.25 3.375V5.125C11.25 6.875 12.125 7.75 13.875 7.75Z" stroke="#85858B" stroke-width="1.3" stroke-miterlimit="10" stroke-linecap="round" stroke-linejoin="round"/>
<path d="M13.875 18.25H15.625C17.375 18.25 18.25 17.375 18.25 15.625V13.875C18.25 12.125 17.375 11.25 15.625 11.25H13.875C12.125 11.25 11.25 12.125 11.25 13.875V15.625C11.25 17.375 12.125 18.25 13.875 18.25Z" stroke="#85858B" stroke-width="1.3" stroke-miterlimit="10" stroke-linecap="round" stroke-linejoin="round"/>
<path d="M3.375 18.25H5.125C6.875 18.25 7.75 17.375 7.75 15.625V13.875C7.75 12.125 6.875 11.25 5.125 11.25H3.375C1.625 11.25 0.75 12.125 0.75 13.875V15.625C0.75 17.375 1.625 18.25 3.375 18.25Z" stroke="#85858B" stroke-width="1.3" stroke-miterlimit="10" stroke-linecap="round" stroke-linejoin="round"/>
</svg>
