<svg width="19" height="19" viewBox="0 0 19 19" fill="none" xmlns="http://www.w3.org/2000/svg">
<path d="M6.34661 17.9553H2.98382C1.745 17.9553 0.741272 16.9516 0.741272 15.7127V9.11594C0.742027 8.63537 0.845467 8.1605 1.04466 7.72315C1.24386 7.2858 1.53421 6.89606 1.89627 6.58005L7.95748 1.30077C8.36563 0.945706 8.88837 0.750153 9.42934 0.750153C9.97032 0.750153 10.4931 0.945706 10.9012 1.30077L16.9624 6.58107C17.3243 6.89697 17.6146 7.28654 17.8138 7.72371C18.013 8.16087 18.1165 8.63554 18.1174 9.11594V15.7127C18.1174 16.3073 17.8813 16.8776 17.461 17.2981C17.0406 17.7186 16.4705 17.955 15.8759 17.9553H12.7921V11.2287C12.7921 10.3006 12.0399 9.54728 11.1107 9.54728H8.02903C7.09992 9.54728 6.34763 10.3006 6.34763 11.2287L6.34661 17.9553ZM6.34661 17.9553H12.7932" stroke="#292928" stroke-width="1.3" stroke-linejoin="round"/>
</svg>
