<svg width="11" height="10" viewBox="0 0 11 10" fill="none" xmlns="http://www.w3.org/2000/svg">
<path fill-rule="evenodd" clip-rule="evenodd" d="M1.55139 4.48428L6.91242 2.10961C7.44167 1.86218 9.2365 1.07063 9.2365 1.07063C9.2365 1.07063 10.0648 0.724295 9.99593 1.5655C9.97284 1.91183 9.78885 3.12378 9.60486 4.43463L9.02979 8.31793C9.02979 8.31793 8.98361 8.88687 8.59254 8.98576C8.20147 9.08466 7.55713 8.63943 7.44204 8.54054C7.35005 8.46647 5.71611 7.35341 5.11796 6.80929C4.95669 6.66075 4.7727 6.36407 5.14105 6.01774C5.96938 5.20136 6.95898 4.18719 7.55713 3.54418C7.83312 3.2475 8.10947 2.55484 6.95898 3.39564L3.71457 5.74548C3.71457 5.74548 3.34659 5.99291 2.65607 5.7703C1.96592 5.54769 1.16069 5.25101 1.16069 5.25101C1.16069 5.25101 0.608346 4.87985 1.55176 4.48428H1.55139Z" fill="#37AEE2"/>
</svg>
